<?xml version="1.0" encoding="utf-8"?>

<svg version="1.1" id="Icons" xmlns="http://www.w3.org/2000/svg" xmlns:xlink="http://www.w3.org/1999/xlink" x="0px" y="0px"
	 viewBox="0 0 32 32" style="enable-background:new 0 0 32 32; fill:#5c5957" xml:space="preserve">
	 <g transform= "translate(0,30) scale(-1,1) rotate(180)">
<path d="M12.7,7.1V6c0-0.8-0.4-1.5-1.1-1.8c-0.7-0.3-1.4-0.2-2,0.2l-6.7,6C2.3,10.8,2,11.4,2,12s0.3,1.2,0.7,1.6l6.8,6
	c0.6,0.4,1.3,0.5,2,0.2c0.7-0.3,1.1-1,1.1-1.8v-1c6.6,0.1,12.7,4.1,15.4,10.4c0.2,0.4,0.5,0.6,0.9,0.6c0.1,0,0.1,0,0.2,0
	c0.5-0.1,0.8-0.5,0.8-1C30,16.7,22.5,8.2,12.7,7.1z"/></g>
</svg>
